<svg width="299" height="76" viewBox="0 0 299 76" fill="none" xmlns="http://www.w3.org/2000/svg">
<path d="M33.1707 72.8295H25.5855L26.2673 48.3864H32.506L33.1707 72.8295ZM29.3867 37.4773C30.4662 37.4773 31.4151 37.875 32.2332 38.6705C33.0514 39.4659 33.4662 40.4318 33.4776 41.5682C33.4662 42.6818 33.0514 43.6364 32.2332 44.4318C31.4151 45.2273 30.4662 45.625 29.3867 45.625C28.2617 45.625 27.2957 45.2273 26.4889 44.4318C25.6821 43.6364 25.2844 42.6818 25.2957 41.5682C25.2844 40.8068 25.4605 40.1193 25.8242 39.5057C26.1992 38.892 26.6992 38.4034 27.3242 38.0398C27.9492 37.6648 28.6367 37.4773 29.3867 37.4773ZM45.0105 64H37.1014L49.1526 29.0909H58.6639L70.698 64H62.7889L54.0446 37.0682H53.7719L45.0105 64ZM44.5162 50.2784H63.198V56.0398H44.5162V50.2784ZM102.899 29.0909V64H96.5236L81.3361 42.0284H81.0804V64H73.6997V29.0909H80.177L95.2452 51.0455H95.552V29.0909H102.899ZM139.876 46.5455C139.876 50.3523 139.155 53.5909 137.711 56.2614C136.28 58.9318 134.325 60.9716 131.848 62.3807C129.382 63.7784 126.609 64.4773 123.53 64.4773C120.427 64.4773 117.643 63.7727 115.177 62.3636C112.711 60.9545 110.763 58.9148 109.331 56.2443C107.899 53.5739 107.183 50.3409 107.183 46.5455C107.183 42.7386 107.899 39.5 109.331 36.8295C110.763 34.1591 112.711 32.125 115.177 30.7273C117.643 29.3182 120.427 28.6136 123.53 28.6136C126.609 28.6136 129.382 29.3182 131.848 30.7273C134.325 32.125 136.28 34.1591 137.711 36.8295C139.155 39.5 139.876 42.7386 139.876 46.5455ZM132.393 46.5455C132.393 44.0795 132.024 42 131.285 40.3068C130.558 38.6136 129.53 37.3295 128.2 36.4545C126.87 35.5795 125.314 35.142 123.53 35.142C121.745 35.142 120.189 35.5795 118.859 36.4545C117.53 37.3295 116.495 38.6136 115.757 40.3068C115.03 42 114.666 44.0795 114.666 46.5455C114.666 49.0114 115.03 51.0909 115.757 52.7841C116.495 54.4773 117.53 55.7614 118.859 56.6364C120.189 57.5114 121.745 57.9489 123.53 57.9489C125.314 57.9489 126.87 57.5114 128.2 56.6364C129.53 55.7614 130.558 54.4773 131.285 52.7841C132.024 51.0909 132.393 49.0114 132.393 46.5455ZM120.922 25.7159L124.535 17.9602H131.251L126.052 25.7159H120.922ZM141.22 35.1761V29.0909H169.891V35.1761H159.203V64H151.908V35.1761H141.22ZM175.164 64H167.255L179.306 29.0909H188.817L200.851 64H192.942L184.198 37.0682H183.925L175.164 64ZM174.669 50.2784H193.351V56.0398H174.669V50.2784ZM203.853 64V29.0909H211.234V57.9148H226.199V64H203.853ZM260.607 46.5455C260.607 50.3523 259.886 53.5909 258.443 56.2614C257.011 58.9318 255.056 60.9716 252.579 62.3807C250.113 63.7784 247.34 64.4773 244.261 64.4773C241.159 64.4773 238.374 63.7727 235.909 62.3636C233.443 60.9545 231.494 58.9148 230.062 56.2443C228.63 53.5739 227.914 50.3409 227.914 46.5455C227.914 42.7386 228.63 39.5 230.062 36.8295C231.494 34.1591 233.443 32.125 235.909 30.7273C238.374 29.3182 241.159 28.6136 244.261 28.6136C247.34 28.6136 250.113 29.3182 252.579 30.7273C255.056 32.125 257.011 34.1591 258.443 36.8295C259.886 39.5 260.607 42.7386 260.607 46.5455ZM253.124 46.5455C253.124 44.0795 252.755 42 252.016 40.3068C251.289 38.6136 250.261 37.3295 248.931 36.4545C247.602 35.5795 246.045 35.142 244.261 35.142C242.477 35.142 240.92 35.5795 239.59 36.4545C238.261 37.3295 237.227 38.6136 236.488 40.3068C235.761 42 235.397 44.0795 235.397 46.5455C235.397 49.0114 235.761 51.0909 236.488 52.7841C237.227 54.4773 238.261 55.7614 239.59 56.6364C240.92 57.5114 242.477 57.9489 244.261 57.9489C246.045 57.9489 247.602 57.5114 248.931 56.6364C250.261 55.7614 251.289 54.4773 252.016 52.7841C252.755 51.0909 253.124 49.0114 253.124 46.5455ZM273.415 29.0909L272.75 53.5341H266.511L265.829 29.0909H273.415ZM269.63 64.4432C268.505 64.4432 267.54 64.0455 266.733 63.25C265.926 62.4432 265.528 61.4773 265.54 60.3523C265.528 59.2386 265.926 58.2841 266.733 57.4886C267.54 56.6932 268.505 56.2955 269.63 56.2955C270.71 56.2955 271.659 56.6932 272.477 57.4886C273.295 58.2841 273.71 59.2386 273.721 60.3523C273.71 61.1023 273.511 61.7898 273.125 62.4148C272.75 63.0284 272.255 63.5227 271.642 63.8977C271.028 64.2614 270.358 64.4432 269.63 64.4432Z" fill="black"/>
<rect x="90" y="69" width="120" height="6" rx="3" fill="#FFAF22"/>
</svg>
